<?xml version="1.0" encoding="UTF-8" standalone="no"?>
<!DOCTYPE svg PUBLIC "-//W3C//DTD SVG 1.1//EN" "http://www.w3.org/Graphics/SVG/1.1/DTD/svg11.dtd">
<svg width="100%" height="100%" viewBox="0 0 64 64" version="1.1" xmlns="http://www.w3.org/2000/svg" xmlns:xlink="http://www.w3.org/1999/xlink" xml:space="preserve" xmlns:serif="http://www.serif.com/" style="fill-rule:evenodd;clip-rule:evenodd;stroke-linecap:round;stroke-linejoin:round;stroke-miterlimit:1.5;">
    <g transform="matrix(1.09201,-0.864358,0.808796,1.02182,-28.3408,26.6356)">
        <rect x="-9.026" y="-6.352" width="89.217" height="73.652"/>
    </g>
    <g transform="matrix(1.02991,-0.815203,0.762801,0.963708,-52.9383,-0.561379)">
        <clipPath id="_clip1">
            <rect x="4.878" y="48.009" width="61.675" height="25.085"/>
        </clipPath>
        <g clip-path="url(#_clip1)">
            <g transform="matrix(11.159,0,0,11.159,-1424.89,-616.182)">
                <text x="128.252px" y="61.749px" style="font-family:'Marola';font-size:3.19px;fill:rgb(101,101,101);">u<tspan x="129.965px " y="61.749px ">n</tspan>a.l<tspan x="135.759px " y="61.749px ">o</tspan>l</text>
            </g>
            <g transform="matrix(11.0847,0,0,11.159,-1415.87,-616.95)">
                <text x="128.252px" y="61.749px" style="font-family:'Marola';font-size:3.19px;fill:white;">u<tspan x="129.965px 131.436px 133.685px " y="61.749px 61.749px 61.749px ">nal</tspan>ol</text>
            </g>
        </g>
    </g>
    <g transform="matrix(0.649616,-0.514188,0.481136,0.607858,-44.3766,34.4601)">
        <path d="M29.068,47.788C29.068,47.788 18.463,78.342 37.045,70.206" style="fill:white;stroke:white;stroke-width:1.25px;"/>
    </g>
</svg>
